<svg width="66" height="64" viewBox="0 0 66 64" fill="none" xmlns="http://www.w3.org/2000/svg">
    <g clip-path="url(#clip0_2365_104)">
        <path d="M46.9927 24.4159C46.9927 27.1967 47.0088 29.9774 46.9927 32.7581C46.9468 39.6455 42.3211 45.2748 35.6149 46.6261C27.9149 48.1776 20.2057 42.6575 19.166 34.846C19.0932 34.3743 19.0514 33.8983 19.0409 33.4211C19.034 27.4131 18.9376 21.4085 19.065 15.4085C19.2142 8.43485 24.9175 2.53387 31.7626 2.03895C39.038 1.51411 45.4183 6.31132 46.7208 13.3333C46.8904 14.2951 46.9772 15.2697 46.9801 16.2464C47.0145 18.9696 46.9927 21.6928 46.9927 24.4159ZM45.0419 24.4332C45.0419 21.748 45.0522 19.064 45.035 16.3765C45.0351 15.6293 44.9856 14.883 44.887 14.1425C43.9529 7.49566 37.3017 2.81355 30.7298 4.16133C24.9714 5.34221 20.9975 10.1751 20.9757 16.0795C20.9527 21.641 20.9653 27.2024 20.9757 32.7685C20.9789 33.4392 21.0299 34.1089 21.1283 34.7723C22.0693 41.2119 28.4312 45.8492 34.8276 44.7696C40.8224 43.7579 44.9845 38.8835 45.0408 32.7777C45.0637 29.9947 45.0488 27.2139 45.0488 24.4332H45.0419Z" fill="#17171F"/>
        <path d="M33.0113 54.1476L39.4868 48.8866C40.1398 48.356 40.7881 47.8185 41.4491 47.2971C41.9793 46.8782 42.5565 46.9173 42.9191 47.3754C43.2817 47.8335 43.1968 48.3928 42.6609 48.8302C39.6934 51.2465 36.7228 53.6589 33.7491 56.0674C33.2178 56.4979 32.7932 56.4968 32.2573 56.0605C29.299 53.6627 26.3433 51.2618 23.3903 48.8578C22.8165 48.3894 22.719 47.8415 23.1034 47.3616C23.4878 46.8816 24.049 46.8839 24.6227 47.342C27.2093 49.4368 29.7943 51.5346 32.3778 53.6355C32.5786 53.8035 32.7875 53.9692 33.0113 54.1476Z" fill="#17171F"/>
        <path d="M34.9265 14.7826C34.9265 15.548 34.9426 16.3145 34.9265 17.0845C34.8967 18.2021 34.0682 19.0112 32.9941 19.002C31.92 18.9928 31.1052 18.1791 31.0938 17.0454C31.0762 15.5146 31.0762 13.9831 31.0938 12.4507C31.1018 11.3228 31.9131 10.5171 32.9998 10.5171C34.1049 10.5102 34.9151 11.3297 34.9334 12.491C34.9449 13.2564 34.9334 14.0218 34.9334 14.793L34.9265 14.7826Z" fill="#17171F"/>
    </g>
    <defs>
        <clipPath id="clip0_2365_104">
            <rect width="28" height="62" fill="#17171F" transform="translate(19 2)"/>
        </clipPath>
    </defs>
</svg>
