<svg width="313" height="88" viewBox="0 0 313 88" fill="none" xmlns="http://www.w3.org/2000/svg">
<g filter="url(#filter0_d_2120_194)">
<path d="M16.6338 30.3668L24.1231 37.8562L16.6338 45.3455L9.14445 37.8562L16.6338 30.3668Z" stroke="#CACACA" stroke-width="3.032" shape-rendering="crispEdges"/>
</g>
<g filter="url(#filter1_d_2120_194)">
<path d="M34.6675 0.712372L278.892 0.712372L294.811 24.0599L281.015 37.8562L294.823 52.7137L278.892 75H34.5929L18.6865 52.7137L32.545 37.8562L18.7611 24.0599L34.6675 0.712372Z" fill="#CACACA"/>
</g>
<g filter="url(#filter2_d_2120_194)">
<rect x="296.877" y="30.3668" width="10.5915" height="10.5915" transform="rotate(45 296.877 30.3668)" stroke="#CACACA" stroke-width="3.032" shape-rendering="crispEdges"/>
</g>
<path d="M274.96 37.3202L274.444 37.8367L274.941 38.372L288.314 52.7739L275.109 71.0582H38.1633L24.958 52.7739L38.3312 38.372L38.8283 37.8367L38.3118 37.3202L24.9603 23.9688L38.1756 4.65413H275.096L288.312 23.9688L274.96 37.3202Z" stroke="#780922" stroke-width="1.516"/>
<path d="M126.876 28.377V33.9437C126.876 34.2509 126.908 34.445 126.973 34.5258C127.046 34.6067 127.244 34.6471 127.567 34.6471H135.935C136.251 34.6471 136.437 34.5986 136.493 34.5016C136.55 34.4046 136.578 34.1943 136.578 33.8709V28.4861C136.578 28.2274 136.554 28.0576 136.506 27.9767C136.465 27.8959 136.315 27.8554 136.057 27.8554H134.08C133.91 27.8554 133.797 27.815 133.74 27.7342C133.692 27.6533 133.668 27.5361 133.668 27.3825V27.0307C133.668 26.8124 133.696 26.675 133.752 26.6184C133.809 26.5537 133.942 26.5214 134.153 26.5214H141.066C141.26 26.5214 141.389 26.5456 141.454 26.5941C141.518 26.6427 141.551 26.772 141.551 26.9822V27.4431C141.551 27.6129 141.518 27.7261 141.454 27.7827C141.389 27.8312 141.264 27.8554 141.078 27.8554H139.55C139.283 27.8554 139.105 27.8837 139.016 27.9403C138.927 27.9889 138.883 28.1465 138.883 28.4133V42.9669C138.883 43.1367 138.911 43.2499 138.967 43.3065C139.032 43.355 139.153 43.3793 139.331 43.3793H141.078C141.239 43.3793 141.357 43.3995 141.429 43.4399C141.51 43.4804 141.551 43.5895 141.551 43.7674V44.1797C141.551 44.4304 141.506 44.584 141.417 44.6406C141.336 44.6891 141.179 44.7134 140.944 44.7134H134.153C133.934 44.7134 133.797 44.681 133.74 44.6163C133.692 44.5517 133.668 44.4061 133.668 44.1797V43.8159C133.668 43.6461 133.684 43.5329 133.716 43.4763C133.756 43.4116 133.858 43.3793 134.019 43.3793H136.069C136.303 43.3793 136.445 43.3348 136.493 43.2459C136.55 43.1569 136.578 42.9993 136.578 42.7729V36.5634C136.578 36.3046 136.538 36.1429 136.457 36.0782C136.384 36.0135 136.227 35.9812 135.984 35.9812H127.446C127.203 35.9812 127.046 36.0095 126.973 36.0661C126.908 36.1146 126.876 36.2561 126.876 36.4906V42.8942C126.876 43.0801 126.9 43.2095 126.949 43.2823C127.005 43.3469 127.135 43.3793 127.337 43.3793H129.386C129.548 43.3793 129.653 43.4035 129.702 43.4521C129.758 43.5006 129.787 43.6138 129.787 43.7916V44.107C129.787 44.3819 129.75 44.5517 129.677 44.6163C129.613 44.681 129.447 44.7134 129.18 44.7134H122.389C122.186 44.7134 122.053 44.6851 121.988 44.6285C121.932 44.5719 121.903 44.4385 121.903 44.2282V43.8887C121.903 43.6704 121.932 43.5329 121.988 43.4763C122.053 43.4116 122.19 43.3793 122.401 43.3793H124.074C124.268 43.3793 124.398 43.3591 124.462 43.3186C124.535 43.2782 124.572 43.161 124.572 42.9669V28.3284C124.572 28.1344 124.539 28.0091 124.475 27.9525C124.41 27.8878 124.285 27.8554 124.099 27.8554H122.328C122.126 27.8554 122.004 27.815 121.964 27.7342C121.924 27.6533 121.903 27.5078 121.903 27.2976V26.9822C121.903 26.7882 121.94 26.6629 122.013 26.6063C122.085 26.5497 122.211 26.5214 122.389 26.5214H129.301C129.463 26.5214 129.584 26.5416 129.665 26.582C129.746 26.6224 129.787 26.7316 129.787 26.9095V27.3946C129.787 27.5886 129.758 27.714 129.702 27.7706C129.645 27.8272 129.524 27.8554 129.338 27.8554H127.349C127.147 27.8554 127.017 27.8878 126.961 27.9525C126.904 28.0172 126.876 28.1587 126.876 28.377ZM145.856 38.1642C145.856 39.1668 145.941 40.1007 146.111 40.9658C146.289 41.8309 146.612 42.5303 147.081 43.064C147.55 43.5976 148.225 43.8644 149.106 43.8644C149.769 43.8644 150.311 43.7148 150.732 43.4157C151.16 43.1084 151.492 42.7042 151.726 42.2029C151.961 41.7016 152.122 41.1437 152.211 40.5292C152.308 39.9066 152.357 39.28 152.357 38.6494C152.357 37.6468 152.268 36.7129 152.09 35.8478C151.92 34.9827 151.601 34.2833 151.132 33.7497C150.663 33.216 149.988 32.9492 149.106 32.9492C148.443 32.9492 147.898 33.1028 147.469 33.4101C147.049 33.7092 146.721 34.1095 146.487 34.6107C146.252 35.112 146.087 35.674 145.99 36.2965C145.901 36.911 145.856 37.5336 145.856 38.1642ZM143.309 38.6494C143.309 37.3557 143.52 36.1995 143.94 35.1808C144.368 34.1539 145.011 33.3454 145.868 32.7552C146.725 32.1568 147.805 31.8577 149.106 31.8577C150.408 31.8577 151.488 32.1488 152.345 32.7309C153.202 33.305 153.84 34.0731 154.261 35.0352C154.689 35.9893 154.904 37.0323 154.904 38.1642C154.904 39.4579 154.689 40.6181 154.261 41.645C153.84 42.6637 153.202 43.4723 152.345 44.0706C151.488 44.6608 150.408 44.9559 149.106 44.9559C147.805 44.9559 146.725 44.6689 145.868 44.0948C145.011 43.5127 144.368 42.7446 143.94 41.7905C143.52 40.8284 143.309 39.7813 143.309 38.6494ZM163.508 41.2569L166.285 33.8346C166.35 33.6728 166.358 33.5677 166.309 33.5192C166.269 33.4626 166.143 33.4343 165.933 33.4343H164.575C164.365 33.4343 164.259 33.3171 164.259 33.0826V32.4277C164.259 32.3226 164.28 32.2417 164.32 32.1851C164.361 32.1285 164.433 32.1002 164.538 32.1002H169.256C169.426 32.1002 169.539 32.1245 169.596 32.173C169.66 32.2134 169.693 32.3266 169.693 32.5126V33.1554C169.693 33.2847 169.665 33.3656 169.608 33.3979C169.559 33.4222 169.466 33.4343 169.329 33.4343H168.068C167.89 33.4343 167.785 33.4586 167.752 33.5071C167.728 33.5556 167.692 33.6405 167.643 33.7618L163.544 44.7255C163.512 44.8225 163.459 44.8832 163.386 44.9074C163.322 44.9398 163.221 44.9559 163.083 44.9559H162.537C162.4 44.9559 162.295 44.9398 162.222 44.9074C162.157 44.8832 162.105 44.8225 162.064 44.7255L157.832 33.689C157.791 33.5677 157.731 33.495 157.65 33.4707C157.569 33.4465 157.444 33.4343 157.274 33.4343H155.94C155.835 33.4343 155.758 33.4101 155.709 33.3616C155.669 33.313 155.649 33.2403 155.649 33.1433V32.5247C155.649 32.3388 155.693 32.2215 155.782 32.173C155.871 32.1245 155.996 32.1002 156.158 32.1002H161.882C162.012 32.1002 162.101 32.1245 162.149 32.173C162.198 32.2134 162.222 32.3024 162.222 32.4398V33.0462C162.222 33.2403 162.186 33.3535 162.113 33.3858C162.04 33.4182 161.907 33.4343 161.713 33.4343H160.548C160.37 33.4343 160.265 33.4626 160.233 33.5192C160.209 33.5758 160.217 33.6688 160.257 33.7982L162.816 41.2205C162.905 41.4711 162.974 41.6652 163.022 41.8026C163.071 41.932 163.115 41.9967 163.156 41.9967C163.196 41.9967 163.241 41.9361 163.289 41.8148C163.346 41.6935 163.419 41.5075 163.508 41.2569ZM170.787 38.6494C170.787 37.3557 171.001 36.1995 171.43 35.1808C171.858 34.1539 172.501 33.3454 173.358 32.7552C174.223 32.1568 175.306 31.8577 176.608 31.8577C177.401 31.8577 178.088 31.979 178.67 32.2215C179.26 32.456 179.757 32.7835 180.162 33.2039C180.574 33.6162 180.906 34.0892 181.156 34.6229C181.407 35.1484 181.589 35.7063 181.702 36.2965C181.815 36.8787 181.872 37.4568 181.872 38.0308C181.872 38.1925 181.839 38.2936 181.775 38.334C181.718 38.3664 181.605 38.3826 181.435 38.3826H173.637C173.508 38.3826 173.406 38.4068 173.334 38.4553C173.269 38.5038 173.237 38.5968 173.237 38.7343C173.237 39.6236 173.354 40.4524 173.588 41.2205C173.823 41.9886 174.195 42.6071 174.704 43.0761C175.222 43.5369 175.897 43.7674 176.73 43.7674C177.692 43.7674 178.488 43.4965 179.119 42.9548C179.757 42.4131 180.239 41.6975 180.562 40.8081C180.594 40.7192 180.627 40.6505 180.659 40.602C180.691 40.5454 180.768 40.5171 180.889 40.5171H181.593C181.714 40.5171 181.791 40.5373 181.823 40.5777C181.856 40.6181 181.86 40.6828 181.835 40.7718C181.609 41.5965 181.269 42.3241 180.817 42.9548C180.364 43.5774 179.778 44.0665 179.058 44.4223C178.338 44.778 177.465 44.9559 176.438 44.9559C175.218 44.9559 174.187 44.6689 173.346 44.0948C172.505 43.5127 171.866 42.7446 171.43 41.7905C171.001 40.8284 170.787 39.7813 170.787 38.6494ZM173.625 37.3395H179.107C179.268 37.3395 179.365 37.3274 179.398 37.3032C179.438 37.2789 179.458 37.2263 179.458 37.1455C179.458 36.7412 179.402 36.3006 179.289 35.8235C179.175 35.3384 179.001 34.8776 178.767 34.441C178.533 33.9963 178.237 33.6324 177.882 33.3494C177.526 33.0664 177.101 32.925 176.608 32.925C175.864 32.925 175.246 33.1352 174.753 33.5556C174.259 33.976 173.892 34.5016 173.649 35.1322C173.406 35.7629 173.285 36.3976 173.285 37.0363C173.285 37.1576 173.305 37.2385 173.346 37.2789C173.386 37.3193 173.479 37.3395 173.625 37.3395ZM185.782 33.8952C185.782 33.7011 185.754 33.5758 185.697 33.5192C185.649 33.4626 185.531 33.4343 185.345 33.4343H183.963C183.785 33.4343 183.68 33.402 183.647 33.3373C183.615 33.2726 183.599 33.1513 183.599 32.9735V32.5247C183.599 32.3549 183.619 32.2417 183.66 32.1851C183.708 32.1285 183.817 32.1002 183.987 32.1002H187.528C187.666 32.1002 187.771 32.1205 187.844 32.1609C187.925 32.1932 187.965 32.2862 187.965 32.4398V33.7133C187.965 33.9154 187.981 34.0246 188.013 34.0407C188.046 34.0569 188.115 33.9639 188.22 33.7618C188.511 33.212 188.907 32.7592 189.408 32.4034C189.918 32.0396 190.568 31.8577 191.361 31.8577C192.04 31.8577 192.646 32.0639 193.18 32.4762C193.714 32.8805 193.98 33.4343 193.98 34.1378C193.98 34.4773 193.912 34.7886 193.774 35.0716C193.645 35.3465 193.467 35.5689 193.241 35.7386C193.014 35.9004 192.76 35.9812 192.477 35.9812C192.064 35.9812 191.713 35.868 191.421 35.6416C191.138 35.4152 190.997 35.1161 190.997 34.7442C190.997 34.4531 191.041 34.2307 191.13 34.0771C191.227 33.9154 191.32 33.7901 191.409 33.7011C191.506 33.6041 191.555 33.5071 191.555 33.4101C191.555 33.2888 191.506 33.1999 191.409 33.1433C191.312 33.0786 191.118 33.0462 190.827 33.0462C190.277 33.0462 189.784 33.2726 189.348 33.7254C188.919 34.1782 188.579 34.7725 188.329 35.5082C188.086 36.2359 187.965 37.0161 187.965 37.8489V42.882C187.965 43.068 187.981 43.1974 188.013 43.2701C188.054 43.3429 188.167 43.3793 188.353 43.3793H189.833C189.986 43.3793 190.075 43.4116 190.099 43.4763C190.132 43.5329 190.148 43.638 190.148 43.7916V44.3374C190.148 44.4829 190.128 44.584 190.087 44.6406C190.055 44.6891 189.97 44.7134 189.833 44.7134H183.938C183.833 44.7134 183.748 44.7012 183.684 44.677C183.627 44.6527 183.599 44.588 183.599 44.4829V43.7189C183.599 43.5814 183.623 43.4925 183.672 43.4521C183.728 43.4035 183.817 43.3793 183.938 43.3793H185.285C185.471 43.3793 185.6 43.355 185.673 43.3065C185.746 43.2499 185.782 43.1327 185.782 42.9548V33.8952Z" fill="#17171F"/>
<defs>
<filter id="filter0_d_2120_194" x="0.936979" y="28.2229" width="31.3936" height="31.3946" filterUnits="userSpaceOnUse" color-interpolation-filters="sRGB">
<feFlood flood-opacity="0" result="BackgroundImageFix"/>
<feColorMatrix in="SourceAlpha" type="matrix" values="0 0 0 0 0 0 0 0 0 0 0 0 0 0 0 0 0 0 127 0" result="hardAlpha"/>
<feOffset dy="6.064"/>
<feGaussianBlur stdDeviation="3.032"/>
<feComposite in2="hardAlpha" operator="out"/>
<feColorMatrix type="matrix" values="0 0 0 0 0 0 0 0 0 0 0 0 0 0 0 0 0 0 0.25 0"/>
<feBlend mode="normal" in2="BackgroundImageFix" result="effect1_dropShadow_2120_194"/>
<feBlend mode="normal" in="SourceGraphic" in2="effect1_dropShadow_2120_194" result="shape"/>
</filter>
<filter id="filter1_d_2120_194" x="12.6225" y="0.712372" width="288.265" height="86.4156" filterUnits="userSpaceOnUse" color-interpolation-filters="sRGB">
<feFlood flood-opacity="0" result="BackgroundImageFix"/>
<feColorMatrix in="SourceAlpha" type="matrix" values="0 0 0 0 0 0 0 0 0 0 0 0 0 0 0 0 0 0 127 0" result="hardAlpha"/>
<feOffset dy="6.064"/>
<feGaussianBlur stdDeviation="3.032"/>
<feComposite in2="hardAlpha" operator="out"/>
<feColorMatrix type="matrix" values="0 0 0 0 0 0 0 0 0 0 0 0 0 0 0 0 0 0 0.25 0"/>
<feBlend mode="normal" in2="BackgroundImageFix" result="effect1_dropShadow_2120_194"/>
<feBlend mode="normal" in="SourceGraphic" in2="effect1_dropShadow_2120_194" result="shape"/>
</filter>
<filter id="filter2_d_2120_194" x="281.18" y="28.2229" width="31.3936" height="31.3946" filterUnits="userSpaceOnUse" color-interpolation-filters="sRGB">
<feFlood flood-opacity="0" result="BackgroundImageFix"/>
<feColorMatrix in="SourceAlpha" type="matrix" values="0 0 0 0 0 0 0 0 0 0 0 0 0 0 0 0 0 0 127 0" result="hardAlpha"/>
<feOffset dy="6.064"/>
<feGaussianBlur stdDeviation="3.032"/>
<feComposite in2="hardAlpha" operator="out"/>
<feColorMatrix type="matrix" values="0 0 0 0 0 0 0 0 0 0 0 0 0 0 0 0 0 0 0.25 0"/>
<feBlend mode="normal" in2="BackgroundImageFix" result="effect1_dropShadow_2120_194"/>
<feBlend mode="normal" in="SourceGraphic" in2="effect1_dropShadow_2120_194" result="shape"/>
</filter>
</defs>
</svg>
