<svg width="27" height="29" viewBox="0 0 27 29" fill="none" xmlns="http://www.w3.org/2000/svg">
<g id="Capa 2">
<g id="Objects">
<path id="Vector" d="M13.0246 10.2333C14.1335 9.23172 15.2266 8.2514 16.3151 7.27386C18.8537 4.98337 21.3945 2.69411 23.9374 0.406092C24.6572 -0.241287 25.6117 -0.077593 25.9268 0.750128C25.9989 0.958175 26.0336 1.17735 26.0294 1.39751C26.0368 3.62357 26.0296 1.71165 26.037 3.94234C26.0434 4.17299 25.9976 4.40211 25.903 4.61255C25.8085 4.82299 25.6676 5.0093 25.4909 5.15756C21.6414 8.61518 17.4514 12.0777 13.6093 15.5452C12.9625 16.1251 13.0679 16.126 12.4257 15.5452C8.58112 12.0839 4.39477 8.62227 0.547739 5.16033C0.370962 5.01212 0.229944 4.82584 0.135217 4.6154C0.0404928 4.40497 -0.00548572 4.17583 0.000716991 3.94511C0.00718491 1.71535 0.000469049 3.62726 0.000469147 1.39658C0.00046918 0.642847 0.31094 0.194305 0.929113 0.0361598C1.39113 -0.0822181 1.76074 0.102747 2.09431 0.406091C3.92265 2.05228 5.75068 3.69878 7.57841 5.34559L12.7308 9.98175C12.8158 10.0585 12.9045 10.1307 13.0246 10.2333Z" fill="url(#paint0_linear_2661_19201)"/>
<path id="Vector_2" d="M13.0246 23.2528C14.1335 22.2513 15.2266 21.2709 16.3151 20.2934C18.8537 18.0029 21.3945 15.7136 23.9374 13.4256C24.6572 12.7782 25.6117 12.9419 25.9268 13.7697C25.9989 13.9777 26.0336 14.1969 26.0294 14.417C26.0368 16.6431 26.0296 14.7312 26.037 16.9619C26.0434 17.1925 25.9976 17.4216 25.903 17.6321C25.8085 17.8425 25.6676 18.0288 25.4909 18.1771C21.6414 21.6347 17.4514 25.0973 13.6093 28.5648C12.9625 29.1446 13.0679 29.1455 12.4257 28.5648C8.58112 25.1034 4.39477 21.6418 0.547739 18.1799C0.370962 18.0317 0.229944 17.8454 0.135217 17.6349C0.0404928 17.4245 -0.00548572 17.1954 0.000716991 16.9646C0.00718491 14.7349 0.000469049 16.6468 0.000469147 14.4161C0.00046918 13.6624 0.31094 13.2138 0.929113 13.0557C1.39113 12.9373 1.76074 13.1223 2.09431 13.4256C3.92265 15.0718 5.75068 16.7183 7.57841 18.3651L12.7308 23.0013C12.8158 23.078 12.9045 23.1502 13.0246 23.2528Z" fill="url(#paint1_linear_2661_19201)"/>
</g>
</g>
<defs>
<linearGradient id="paint0_linear_2661_19201" x1="12.8972" y1="-6.10668e-07" x2="12.8972" y2="15.9805" gradientUnits="userSpaceOnUse">
<stop stop-color="#8B8B8B"/>
<stop offset="0.505707" stop-color="#F5F5FA"/>
<stop offset="1" stop-color="#B9B9B9"/>
</linearGradient>
<linearGradient id="paint1_linear_2661_19201" x1="12.8972" y1="13.0195" x2="12.8972" y2="29" gradientUnits="userSpaceOnUse">
<stop stop-color="#8B8B8B"/>
<stop offset="0.505707" stop-color="#F5F5FA"/>
<stop offset="1" stop-color="#B9B9B9"/>
</linearGradient>
</defs>
</svg>
