<svg width="30" height="30" viewBox="0 0 30 30" fill="none" xmlns="http://www.w3.org/2000/svg">
<g id="2Recurso 6tarjeta 2" clip-path="url(#clip0_3051_5488)">
<g id="Capa 2">
<g id="Layer 2">
<path id="Vector" d="M14.9943 29.9999C12.0268 29.9992 9.12614 29.1184 6.65927 27.4689C4.1924 25.8195 2.27015 23.4754 1.13566 20.7333C0.00117625 17.9912 -0.29457 14.9742 0.285832 12.064C0.866234 9.15379 2.29671 6.48109 4.39631 4.38398C6.49591 2.28686 9.17031 0.85956 12.0812 0.282608C14.9921 -0.294343 18.0087 0.00497937 20.7495 1.14271C23.4902 2.28045 25.832 4.20548 27.4786 6.6743C29.1251 9.14312 30.0025 12.0448 29.9996 15.0123C29.9987 16.9818 29.6098 18.9317 28.8552 20.7508C28.1005 22.5699 26.9949 24.2226 25.6015 25.6144C24.2081 27.0061 22.5542 28.1098 20.7342 28.8622C18.9142 29.6147 16.9637 30.0013 14.9943 29.9999ZM5.47553 24.1791C7.42409 20.1967 10.5461 17.9174 14.9979 17.9139C19.4497 17.9103 22.5859 20.2002 24.5344 24.1791C26.3339 22.3098 27.5439 19.9525 28.0138 17.4007C28.4836 14.8489 28.1926 12.2152 27.1769 9.82757C26.1611 7.43992 24.4656 5.40373 22.3014 3.97246C20.1371 2.54119 17.5997 1.77806 15.005 1.77806C12.4103 1.77806 9.87285 2.54119 7.7086 3.97246C5.54434 5.40373 3.84882 7.43992 2.83311 9.82757C1.8174 12.2152 1.52635 14.8489 1.9962 17.4007C2.46604 19.9525 3.67602 22.3098 5.47553 24.1791ZM6.91917 25.4663C11.5843 29.1999 18.5181 29.1501 23.073 25.4663C22.4981 23.7807 21.4102 22.3172 19.9618 21.2809C18.5134 20.2446 16.777 19.6874 14.9961 19.6874C13.2151 19.6874 11.4788 20.2446 10.0304 21.2809C8.582 22.3172 7.49411 23.7807 6.91917 25.4663Z" fill="white"/>
<path id="Vector_2" d="M20.5811 10.3118C20.5761 11.4151 20.2444 12.4923 19.6277 13.4072C19.0109 14.3221 18.1369 15.0338 17.116 15.4523C16.0951 15.8708 14.9731 15.9774 13.8916 15.7586C12.8102 15.5398 11.8178 15.0055 11.0398 14.223C10.2619 13.4406 9.73321 12.4452 9.52062 11.3625C9.30803 10.2798 9.42104 9.15842 9.84538 8.13991C10.2697 7.12141 10.9864 6.25149 11.9048 5.64002C12.8232 5.02855 13.9023 4.70296 15.0056 4.70435C15.7401 4.70575 16.4671 4.85198 17.145 5.13466C17.8229 5.41735 18.4384 5.83095 18.9563 6.35179C19.4741 6.87263 19.8842 7.49049 20.163 8.16999C20.4418 8.8495 20.5839 9.57732 20.5811 10.3118ZM11.1796 10.3118C11.1852 11.0666 11.4142 11.8028 11.8376 12.4276C12.261 13.0525 12.8599 13.538 13.5589 13.8229C14.2578 14.1079 15.0255 14.1795 15.7651 14.0288C16.5047 13.8782 17.1831 13.5119 17.7148 12.9762C18.2466 12.4405 18.6078 11.7594 18.753 11.0187C18.8982 10.278 18.8209 9.51087 18.5308 8.81407C18.2406 8.11726 17.7507 7.52195 17.1227 7.10317C16.4948 6.6844 15.7569 6.46092 15.0021 6.4609C14.498 6.46183 13.999 6.56227 13.5338 6.75648C13.0686 6.95068 12.6463 7.23483 12.2912 7.5926C11.9361 7.95038 11.6551 8.37475 11.4643 8.84138C11.2736 9.308 11.1768 9.80769 11.1796 10.3118Z" fill="white"/>
</g>
</g>
</g>
<defs>
<clipPath id="clip0_3051_5488">
<rect width="30" height="30" fill="white"/>
</clipPath>
</defs>
</svg>
